<svg fill="#2AB09D" viewBox="0 0 180 300">
	<path d="M41.3 116.4s-1.1 6.9-1.3 12.7c-.3 8.8-.1 12.6.8 19.6 0 0-16.1-6.9-15.9-19.4.2-12.5 16.4-12.9 16.4-12.9zM90.9 175.6l13.4 7.8 8.1 20.5s-2.7 18.8-24.5 24.2c-21.8 5.4-46.4 3.1-60.2 0-13.8-3-12.3-13.2-7.6-17.6 4.7-4.4 20 0 26.8.8 0 0 30.9-8 32.8-9.5 6.6-5.2 10.5-15.1 11.2-26.2z"/>
	<path d="M20.2 51.7l4.5 4 25.8 23.2s-7.3 47.1-5.9 61.2l.1.5c1.5 16.2 1.5 9.5.2 25.9-1.2 16.4 7 18.3 11.1 18.3 3.5 0 9.3-2 13.9-13.2 4.5-11.3 6.1-26.3 6.1-26.3l1.8 13.4 15.6 12.8 14.8 8.2s8.3 20.1 9.8 23.5c1.6 3.4.5 3.1 1.2 28.5s17.3 44.6 22.7 49.8c6.7 6.4 19.7 9.5 23 .2 3.3-9.4-5.3-14.3-13.6-24s-4.5-43.1-3.1-58.5c1.3-15.3 11.1-23.1 4.1-35-7-12-20.8-46.6-24.8-66.3-4-19.7-15-46.2-25.5-57.1-6.4-6.7-11.6-12.9-14.8-16.8-2.1-2.6-3.4-4.2-3.4-4.2L20.2 51.7z"/>
</svg>