<svg xmlns="http://www.w3.org/2000/svg" viewBox="0 0 1040.89 809.26"><defs><style>.cls-4{fill:none;stroke:#fff;stroke-miterlimit:10;stroke-width:2px}.cls-6{fill:#fff}.cls-7{fill:#ee6a56}</style></defs><g id="Layer_2" data-name="Layer 2"><g id="Layer_1-2" data-name="Layer 1"><path d="M509 558.89c0 129.59-105 234.63-234.64 234.63S39.7 688.47 39.7 558.89s105-234.64 234.63-234.64S509 429.3 509 558.89z" style="isolation:isolate" fill="#232833" opacity=".7"/><path d="M478.88 239.44c0 132.24-107.2 239.44-239.44 239.44S0 371.68 0 239.44 107.2 0 239.44 0s239.44 107.2 239.44 239.44z" style="isolation:isolate" fill="#3ab69e" opacity=".4"/><circle cx="666.1" cy="434.48" r="374.79" style="isolation:isolate" fill="#3ab69e" opacity=".9"/><path d="M112.38 176.71h298.09v430.97H112.38zM607.47 176.71h298.09v444H607.47zM152.98 434.48h197.73M152.98 478.88h197.73M152.98 514.49h197.73M661.87 432.5h197.74M661.87 476.89h197.74M661.87 512.5h197.74" class="cls-4"/><path fill="none" stroke="#fff" stroke-miterlimit="10" stroke-width="3" d="M357.21 288.69H655.3v403.56H357.21z"/><path d="M407.39 525.06h197.74M407.39 569.46h197.74M407.39 605.06h197.74" class="cls-4"/><path d="M253.3 322.5h1.14c10.46-.18 18.92-3.85 25.17-10.89 13.74-15.49 11.46-42.05 11.21-44.59-.89-19-9.89-28.13-17.31-32.38a39.68 39.68 0 0 0-19.21-5h-.61a39.76 39.76 0 0 0-19.21 4.89C227 238.75 217.85 247.85 217 267c-.25 2.53-2.53 29.09 11.21 44.59 6.17 7.05 14.63 10.73 25.09 10.91zm-26.81-54.58v-.29c1.18-25.6 19.35-28.34 27.13-28.34h.43c9.64.21 26 4.14 27.13 28.34a.68.68 0 0 0 0 .29c0 .25 2.53 24.53-8.82 37.31-4.5 5.07-10.49 7.57-18.39 7.64h-.36c-7.85-.07-13.89-2.57-18.35-7.64-11.26-12.72-8.8-37.1-8.77-37.31z" class="cls-6"/><path d="M327.23 366.55v-.11-.89c-.22-7.07-.68-23.6-16.17-28.88l-.36-.11c-16.1-4.11-29.49-13.39-29.63-13.49a4.82 4.82 0 1 0-5.53 7.89 111.17 111.17 0 0 0 32.59 14.89c8.32 3 9.25 11.85 9.5 20a7.33 7.33 0 0 0 0 .89 64.68 64.68 0 0 1-.75 11c-5.78 3.28-28.45 14.64-62.94 14.64S196.79 381 191 377.73a61.21 61.21 0 0 1-.75-11v-.89c.25-8.14 1.18-17 9.5-20 17.78-4.57 32-14.49 32.59-14.89a4.82 4.82 0 0 0-5.53-7.89c-.14.11-13.46 9.39-29.63 13.49l-.36.11c-15.49 5.32-16 21.85-16.17 28.88a7.12 7.12 0 0 1 0 .89v.11c0 1.86-.07 11.39 1.82 16.17a4.58 4.58 0 0 0 1.86 2.25C185.37 385.65 211 402 254 402s68.61-16.39 69.68-17.06a4.78 4.78 0 0 0 1.86-2.25c1.77-4.75 1.73-14.28 1.69-16.14zM755.89 319.94H757c10.46-.18 18.92-3.85 25.17-10.89 13.74-15.49 11.46-42.05 11.21-44.59-.89-19-9.89-28.13-17.31-32.38a39.68 39.68 0 0 0-19.21-5h-.61a39.76 39.76 0 0 0-19.21 4.89c-7.5 4.25-16.64 13.35-17.53 32.52-.25 2.53-2.53 29.09 11.21 44.59 6.28 7.01 14.71 10.68 25.17 10.86zm-26.81-54.58v-.29c1.18-25.6 19.35-28.34 27.13-28.34h.43c9.64.21 26 4.14 27.13 28.34a.68.68 0 0 0 0 .29c0 .25 2.53 24.53-8.82 37.31-4.5 5.07-10.49 7.57-18.39 7.64h-.36c-7.85-.07-13.89-2.57-18.35-7.64-11.24-12.67-8.85-37.1-8.77-37.31z" class="cls-6"/><path d="M829.82 364v-.11-.89c-.21-7.07-.68-23.6-16.17-28.88l-.36-.11c-16.1-4.11-29.49-13.39-29.63-13.49a4.82 4.82 0 1 0-5.53 7.89 111.17 111.17 0 0 0 32.59 14.89c8.32 3 9.25 11.85 9.5 20a7.32 7.32 0 0 0 0 .89 64.68 64.68 0 0 1-.75 11c-5.78 3.28-28.45 14.64-62.94 14.64s-57.15-11.39-63-14.67a61.21 61.21 0 0 1-.75-11v-.89c.25-8.14 1.18-17 9.5-20 17.78-4.57 32-14.49 32.59-14.89a4.82 4.82 0 0 0-5.53-7.89c-.14.11-13.46 9.39-29.63 13.49l-.36.11c-15.49 5.32-16 21.85-16.17 28.88a7.12 7.12 0 0 1 0 .89v.14c0 1.86-.07 11.39 1.82 16.17a4.58 4.58 0 0 0 1.86 2.25c1.07.71 26.74 17.06 69.69 17.06s68.61-16.39 69.68-17.06a4.78 4.78 0 0 0 1.86-2.25c1.8-4.79 1.76-14.32 1.73-16.17zM569.65 483.41a69.92 69.92 0 0 0-38.28-34.83v-10.09c8.24-.45 23.79-2.55 32.91-11.88a4.76 4.76 0 0 0 1.19-4.51 4.7 4.7 0 0 0-3.28-3.32c-.14 0-12.16-4.16-9.74-28.75a106.81 106.81 0 0 0-.49-28c-1.57-9.29-4.72-16.59-9.29-21.69a24.85 24.85 0 0 0-19.21-8.28h-.91a29.33 29.33 0 0 0-19.42-7 40 40 0 0 0-14.49 2.94l-.21.07a35.81 35.81 0 0 0-17.33 12.4c-7.16 9.5-10.58 23.58-10.17 41.81s-2.58 27.21-5.17 31.51c-2.13 3.53-4.16 4.23-4.68 4.37a4.29 4.29 0 0 0-4.12 2.3 4.77 4.77 0 0 0 .45 5.1c.42.63 2.86 3.91 8.77 7.09 6.74 3.63 15.16 5.69 25.12 6.11v9.61a70.22 70.22 0 0 0-38.11 35.11 4.69 4.69 0 0 0 4.23 6.74h118a4.7 4.7 0 0 0 4-2.2 4.84 4.84 0 0 0 .23-4.61zm-114.19-2.69a60.47 60.47 0 0 1 32-24.59 4.72 4.72 0 0 0 3.28-4.47v-17.57a4.71 4.71 0 0 0-4.75-4.72c-13.59.14-21.8-3-26.27-5.62.31-.31.66-.63 1-1 6.88-7.16 10.13-20.85 9.68-40.73-.91-36.71 14.71-42.65 21.34-45.17l.21-.07a31.92 31.92 0 0 1 11.05-2.22c9 0 13.62 5 14 5.41a4.59 4.59 0 0 0 4.05 1.68c.77-.07 1.54-.1 2.27-.1a15.55 15.55 0 0 1 12.23 5.17c6.64 7.34 9.36 22.81 7.41 42.44-2 19.81 4.23 29.73 9.57 34.55-7.2 4-17.43 5.48-25.15 5.48h-.7a4.8 4.8 0 0 0-3.42 1.33 4.7 4.7 0 0 0-1.43 3.39V452a4.69 4.69 0 0 0 3.28 4.47 61 61 0 0 1 32.14 24.35H455.46z" class="cls-6"/><path d="M165.58 541.25l4.87 11.52 12.46 1.07a1 1 0 0 1 .56 1.72l-9.47 8.18 2.83 12.18a1 1 0 0 1-1.46 1.06l-10.7-6.46L154 577a1 1 0 0 1-1.46-1.06l2.83-12.18-9.45-8.19a1 1 0 0 1 .56-1.72l12.46-1.07 4.87-11.51a1 1 0 0 1 1.81 0zM205 541.25l4.87 11.52 12.46 1.07a1 1 0 0 1 .56 1.72l-9.45 8.19 2.83 12.18a1 1 0 0 1-1.46 1.06l-10.7-6.46-10.68 6.47a1 1 0 0 1-1.46-1.06l2.83-12.18-9.45-8.19a1 1 0 0 1 .56-1.72l12.46-1.07 4.87-11.51a1 1 0 0 1 1.81 0zM249.6 541.25l4.87 11.52 12.46 1.07a1 1 0 0 1 .56 1.72l-9.49 8.18 2.83 12.18a1 1 0 0 1-1.43 1.08l-10.7-6.46L238 577a1 1 0 0 1-1.46-1.06l2.83-12.18-9.45-8.19a1 1 0 0 1 .56-1.72l12.46-1.07 4.87-11.51a1 1 0 0 1 1.81 0zM290.8 541.25l4.86 11.52 12.46 1.07a1 1 0 0 1 .56 1.72l-9.45 8.19 2.83 12.18a1 1 0 0 1-1.46 1.07l-10.71-6.46-10.7 6.46a1 1 0 0 1-1.46-1.06l2.83-12.18-9.45-8.19a1 1 0 0 1 .56-1.72l12.46-1.07 4.87-11.53a1 1 0 0 1 1.81 0z" class="cls-7"/><path d="M328.64 541.25l4.87 11.52 12.49 1.06a1 1 0 0 1 .56 1.72l-9.45 8.19 2.83 12.18a1 1 0 0 1-1.46 1.06l-10.71-6.46L317 577a1 1 0 0 1-1.46-1.06l2.83-12.18-9.37-8.21a1 1 0 0 1 .56-1.72l12.44-1.07 4.87-11.51a1 1 0 0 1 1.81 0zM435 622.31l4.87 11.52 12.46 1.07a1 1 0 0 1 .56 1.72l-9.45 8.19 2.81 12.19a1 1 0 0 1-1.46 1.06l-10.7-6.46-10.71 6.4a1 1 0 0 1-1.46-1.06l2.83-12.18-9.45-8.19a1 1 0 0 1 .56-1.72l12.46-1.07 4.87-11.51a1 1 0 0 1 1.81 0zM474.45 622.31l4.87 11.52 12.46 1.07a1 1 0 0 1 .56 1.72l-9.45 8.19 2.82 12.19a1 1 0 0 1-1.46 1.06l-10.7-6.46-10.71 6.4a1 1 0 0 1-1.46-1.06l2.83-12.18-9.45-8.19a1 1 0 0 1 .56-1.72l12.46-1.07 4.87-11.51a1 1 0 0 1 1.81 0zM519 622.31l4.87 11.52 12.46 1.07a1 1 0 0 1 .56 1.72l-9.45 8.19 2.83 12.19a1 1 0 0 1-1.46 1.06l-10.7-6.46-10.71 6.4a1 1 0 0 1-1.46-1.06l2.83-12.18-9.45-8.19a1 1 0 0 1 .56-1.72l12.46-1.07 4.87-11.51a1 1 0 0 1 1.81 0zM560.21 622.31l4.86 11.52 12.46 1.07a1 1 0 0 1 .56 1.72l-9.45 8.19 2.83 12.19a1 1 0 0 1-1.47 1l-10.71-6.46L548.6 658a1 1 0 0 1-1.46-1.06L550 644.8l-9.45-8.19a1 1 0 0 1 .56-1.72l12.46-1.07 4.87-11.51a1 1 0 0 1 1.81 0z" class="cls-7"/><path d="M598 622.31l4.87 11.52 12.45 1.07a1 1 0 0 1 .56 1.72l-9.45 8.19 2.88 12.19a1 1 0 0 1-1.46 1.06l-10.7-6.46-10.71 6.4a1 1 0 0 1-1.44-1l2.83-12.18-9.45-8.19a1 1 0 0 1 .56-1.72l12.46-1.07 4.87-11.51a1 1 0 0 1 1.81 0zM677.89 541.25l4.87 11.52 12.45 1.07a1 1 0 0 1 .56 1.72l-9.45 8.19 2.83 12.18a1 1 0 0 1-1.46 1.06L677 570.52 666.28 577a1 1 0 0 1-1.46-1.06l2.83-12.18-9.45-8.19a1 1 0 0 1 .56-1.72l12.46-1.07 4.87-11.51a1 1 0 0 1 1.81 0zM717.34 541.25l4.87 11.52 12.45 1.07a1 1 0 0 1 .56 1.72l-9.45 8.19 2.83 12.18a1 1 0 0 1-1.46 1.06l-10.7-6.46-10.7 6.47a1 1 0 0 1-1.46-1.06l2.83-12.18-9.45-8.19a1 1 0 0 1 .56-1.72l12.45-1.07 4.87-11.51a1 1 0 0 1 1.81 0zM761.9 541.25l4.87 11.52 12.45 1.07a1 1 0 0 1 .56 1.72l-9.45 8.19 2.83 12.18a1 1 0 0 1-1.46 1.07l-10.7-6.48-10.7 6.48a1 1 0 0 1-1.46-1.06l2.83-12.18-9.45-8.19a1 1 0 0 1 .56-1.72l12.46-1.07 4.87-11.51a1 1 0 0 1 1.81 0zM803.1 541.25l4.9 11.51 12.46 1.07a1 1 0 0 1 .56 1.72l-9.45 8.19 2.83 12.18a1 1 0 0 1-1.46 1.06l-10.7-6.46L791.5 577a1 1 0 0 1-1.46-1.06l2.83-12.18-9.45-8.19a1 1 0 0 1 .56-1.72l12.46-1.07 4.87-11.51a1 1 0 0 1 1.81 0z" class="cls-7"/><path d="M840.95 541.25l4.87 11.52 12.45 1.07a1 1 0 0 1 .56 1.72l-9.45 8.19 2.83 12.18a1 1 0 0 1-1.46 1.06L840 570.52 829.34 577a1 1 0 0 1-1.46-1.06l2.83-12.18-9.45-8.19a1 1 0 0 1 .56-1.72l12.46-1.07 4.87-11.51a1 1 0 0 1 1.81 0z" class="cls-7"/></g></g></svg>