<svg xmlns="http://www.w3.org/2000/svg" viewBox="0 0 1044.38 823.49"><defs><style>.cls-4{fill:#fff}.cls-5{fill:#eaebec}</style></defs><g id="Layer_2" data-name="Layer 2"><g id="Layer_1-2" data-name="Layer 1"><path d="M508.61 558.5C508.61 688 403.63 793 274.14 793S39.66 688 39.66 558.5 144.64 324 274.14 324s234.47 105 234.47 234.5z" style="isolation:isolate" fill="#3ab69e" opacity=".4"/><path d="M478.54 239.27c0 132.15-107.12 239.27-239.27 239.27S0 371.42 0 239.27 107.13 0 239.27 0s239.27 107.12 239.27 239.27z" style="isolation:isolate" fill="#3ab69e" opacity=".9"/><path d="M1044.38 449c0 206.84-167.67 374.52-374.52 374.52S295.34 655.81 295.34 449 463 74.45 669.86 74.45 1044.38 242.13 1044.38 449z" style="isolation:isolate" fill="#232833" opacity=".7"/><path d="M751.44 501.16a34.32 34.32 0 0 0-12.33-9.48 85.37 85.37 0 0 0-85.05-79.94H539.39a89.91 89.91 0 0 0-36.14 7.65 89.9 89.9 0 0 0-36.14-7.65h-108.5a85.41 85.41 0 0 0-84.94 77.77 34.5 34.5 0 0 0-25.28 42.16l19.7 97.12.33 1.17a31.24 31.24 0 0 0 29.36 20.7h.68v51.19h40.28l17.06-51.19h303.4l17.06 51.19h40.28v-51.42a31.27 31.27 0 0 0 27.2-22.43l14.78-98.28a34.21 34.21 0 0 0-7.08-28.56zm-97.38-72.35a68.35 68.35 0 0 1 67.74 59.83c-1.11.07-2.14.36-3.23.5-1.39.19-2.78.34-4.14.65a46.91 46.91 0 0 0-4.51 1.34c-1.28.43-2.58.81-3.81 1.34-1.48.64-2.87 1.42-4.27 2.2-1.12.62-2.25 1.18-3.32 1.89a49.18 49.18 0 0 0-4 3.13c-.89.74-1.83 1.41-2.66 2.21a48.12 48.12 0 0 0-3.79 4.24c-.61.75-1.31 1.42-1.88 2.21a48.1 48.1 0 0 0-3.49 5.65c-.32.59-.72 1.13-1 1.73a48.18 48.18 0 0 0-2.94 7.84c0 .15-.12.29-.16.44a47.39 47.39 0 0 0-1.53 9l-2.31 32.32h-163V434.42a72.67 72.67 0 0 1 27.61-5.61h114.69zm-295.45 0H467.1a72.52 72.52 0 0 1 27.61 5.61v130.9H334.32l-5.1-35.68a47.27 47.27 0 0 0-1.91-8c-.28-.84-.67-1.64-1-2.47a47.19 47.19 0 0 0-2.18-4.94c-.49-.92-1-1.77-1.59-2.65a46.66 46.66 0 0 0-2.75-4.05c-.65-.85-1.34-1.66-2-2.47-1.06-1.2-2.16-2.34-3.33-3.43-.78-.73-1.55-1.44-2.38-2.12-1.27-1-2.6-2-4-2.88-.84-.56-1.66-1.14-2.53-1.66a45.91 45.91 0 0 0-4.93-2.4c-.76-.33-1.48-.73-2.26-1a47.24 47.24 0 0 0-7.59-2.16 68.39 68.39 0 0 1 67.84-60.6zm-60.83 204.78a14.14 14.14 0 0 1-13.1-8.86l-19.7-97a17.48 17.48 0 0 1 16.84-22.11 31 31 0 0 1 30.5 26.38l11.17 101.54h-25.71zm28.67 51.19h-10.92v-34.13h22.29zm35.05-51.19h-20.68l-4.57-51.19h337.52l-2.28 51.19h-310zm338 51.19h-10.92l-11.38-34.13h22.29zm42.23-158l-14.52 97a14.19 14.19 0 0 1-13.43 9.78h-25.11l5.42-99.37a30.93 30.93 0 0 1 30.75-28.62 17.24 17.24 0 0 1 13.4 6.36 17.56 17.56 0 0 1 3.48 14.87z" class="cls-4"/><path d="M369.23 528.7a8.53 8.53 0 0 0 12.06 0l7.85-7.85a25.57 25.57 0 0 0 23.43 0l7.85 7.85a8.53 8.53 0 1 0 12.06-12.07l-7.85-7.85a26.61 26.61 0 0 0 0-23.44l7.85-7.85a8.53 8.53 0 1 0-12.06-12.07l-7.85 7.85a26.61 26.61 0 0 0-23.44 0l-7.85-7.85a8.53 8.53 0 1 0-12.06 12.07l7.85 7.85a26.61 26.61 0 0 0 0 23.44l-7.85 7.85a8.53 8.53 0 0 0 .01 12.07zm38.4-38.4a9.58 9.58 0 1 1-6.77-2.8 9.57 9.57 0 0 1 6.76 2.8zM574 528.7a8.53 8.53 0 0 0 12.06 0l7.85-7.85a25.57 25.57 0 0 0 23.43 0l7.85 7.85a8.53 8.53 0 1 0 12.06-12.07l-7.85-7.85a26.6 26.6 0 0 0 0-23.44l7.85-7.85a8.53 8.53 0 1 0-12.06-12.07l-7.85 7.85a26.61 26.61 0 0 0-23.44 0l-7.85-7.85A8.53 8.53 0 0 0 574 477.5l7.85 7.85a26.61 26.61 0 0 0 0 23.44l-7.85 7.84a8.53 8.53 0 0 0 0 12.07zm38.39-38.4a9.58 9.58 0 1 1-6.77-2.8 9.57 9.57 0 0 1 6.78 2.8zM435 369.08h42.66v-25.6h196.23v25.6h42.66v-25.6h25.6v-51.19h-25.6V207h-34.12v-17.1h-51.2v25.6H607a11.06 11.06 0 0 0-9.22 4.93L550 292.13c0 .05 0 .11-.08.16H409.39v51.19H435v25.6zM460.58 352h-8.53v-8.53h8.53zm238.91 0H691v-8.53h8.53zm0-128v68.26h-17.06V224zm-51.19-17h17.06v85.32H648.3zm-17.07 85.32h-26.71l26.71-40.07zm-21-59.73h13.63L584 292.29h-13.62zm-183.78 93.83v-17.06h298.64v17.06H426.45z" class="cls-4"/><g id="Calendar-Checked"><path d="M308.88 299.23a4 4 0 1 0-6.45 4.83l12.89 17.19a4 4 0 0 0 3.22 1.61h.21a4 4 0 0 0 3.25-2l19.34-32.23a4 4 0 0 0-6.91-4.15l-16.26 27.09z" class="cls-5"/><path d="M358 117.38h-60.4V97.22a4 4 0 0 0-8.06 0v20.16h-84.62V97.22a4 4 0 1 0-8.06 0v20.16h-64.47a16.12 16.12 0 0 0-16.12 16.12V335a16.12 16.12 0 0 0 16.12 16.12H358A16.12 16.12 0 0 0 374.15 335V133.5A16.12 16.12 0 0 0 358 117.38zm-225.64 8.06h64.47v12.07a4 4 0 1 0 8.06 0v-12.07h84.61v12.07a4 4 0 0 0 8.06 0v-12.07H358a8.07 8.07 0 0 1 8.06 8.06v28.19H124.33V133.5a8.07 8.07 0 0 1 8.06-8.06zM366.1 335a8.07 8.07 0 0 1-8.1 8H132.39a8.07 8.07 0 0 1-8.06-8.06V169.75H366.1z" class="cls-5"/><path d="M188.8 189.89h-32.23v32.23h32.23zm-8.06 24.18h-16.11V198h16.12zM261.33 189.89H229.1v32.23h32.23zm-8.06 24.18h-16.11V198h16.12zM333.86 189.89h-32.24v32.23h32.23zm-8.06 24.18h-16.12V198h16.12zM188.8 238.25h-32.23v32.23h32.23zm-8.06 24.18h-16.11v-16.12h16.12zM261.33 238.25H229.1v32.23h32.23zm-8.06 24.18h-16.11v-16.12h16.12zM188.8 286.6h-32.23v32.23h32.23zm-8.06 24.18h-16.11v-16.12h16.12zM261.33 286.6H229.1v32.23h32.23zm-8.06 24.18h-16.11v-16.12h16.12zM333.86 238.25h-32.24v32.23h32.23zm-8.06 24.18h-16.12v-16.12h16.12z" class="cls-5"/></g></g></g></svg>