<svg xmlns="http://www.w3.org/2000/svg" viewBox="0 0 1027.03 798.5"><defs><style>.cls-4{fill:#e7e8e9}.cls-5{fill:#fff}</style></defs><path d="M502.19 551.45C502.19 679.31 398.54 783 270.68 783S39.17 679.31 39.17 551.45s103.65-231.51 231.51-231.51 231.51 103.65 231.51 231.51z" style="isolation:isolate" fill="#232833" opacity=".7"/><circle cx="236.25" cy="236.25" r="236.25" style="isolation:isolate" fill="#3ab69e" opacity=".4"/><circle cx="657.24" cy="428.7" r="369.8" style="isolation:isolate" fill="#3ab69e" opacity=".9"/><path d="M878.23 356.28l-37.41-65.72a10.54 10.54 0 0 0 5.81-10.36l-2.78-23.25 15.92-16.68c3.54-3.54 3.79-9.6.25-13.9l-15.92-17.2 3.29-23.51a10.46 10.46 0 0 0-8.09-11.12l-23-4.55-11.12-20.47a10 10 0 0 0-12.89-4.8H792l-21.23 9.86-20.73-10.11a9.85 9.85 0 0 0-13.4 4L725.31 169l-23 4a10.37 10.37 0 0 0-8.31 11.4l2.78 23.25-15.92 16.68c-3.54 3.54-3.79 9.6-.25 13.9l15.93 17.19-3.29 23.51a10.41 10.41 0 0 0 6.57 10.62l-37.66 66.73a5.14 5.14 0 0 0 0 5.05 5.21 5.21 0 0 0 4.3 2.53h40.44L725.31 396a5.21 5.21 0 0 0 4.3 2.53 4.89 4.89 0 0 0 4.3-2.53L770 334.29l36.15 62.43a5.21 5.21 0 0 0 4.3 2.53 4.9 4.9 0 0 0 4.3-2.53l18.45-32.86h40.44a4.89 4.89 0 0 0 4.3-2.53 4.18 4.18 0 0 0 .29-5.05zm-148.37 27l-15.67-27a5.21 5.21 0 0 0-4.3-2.53H675l34.88-61.67 14.41 2.53 11.12 20.47a9.94 9.94 0 0 0 12.89 4.8h.25l10.36-4.8 5.06 8.85zm14.66-72.54h-.25l-11.12-21a9.44 9.44 0 0 0-7.08-4.8l-23.25-4.3 3.29-23.26a9.84 9.84 0 0 0-2.53-8.34l-15.68-17.12 15.92-16.68a9.49 9.49 0 0 0 2.78-8.34l-2.78-23a.78.78 0 0 1 .25-.51l23-4a10.22 10.22 0 0 0 7.08-5.06l11.37-20.47 20.73 10.11a9.66 9.66 0 0 0 9.1 0l21-9.6h.25l11.12 21c1.52 2.53 4 4.55 6.82 4.8l23 4.55-3.29 23.26a9.84 9.84 0 0 0 2.53 8.34l15.92 17.19-16.18 16.68a9.49 9.49 0 0 0-2.78 8.34l2.78 23.25-22.75 3.79a10.23 10.23 0 0 0-7.08 5.06L795.32 311l-20.73-10.11a9.66 9.66 0 0 0-9.1 0zm85.94 43a4.89 4.89 0 0 0-4.3 2.53l-15.67 27.8-35.64-61.67a4.09 4.09 0 0 0-1-1.77l-5.56-9.86L770 310l20.73 10.11a10.4 10.4 0 0 0 13.4-4l11.37-20.47 15.17-2.78 34.63 60.92h-34.84z" class="cls-4"/><path d="M820.6 232.42A50.55 50.55 0 1 0 770 283a50.7 50.7 0 0 0 50.6-50.58zM770 272.87a40.44 40.44 0 1 1 40.44-40.44A40.56 40.56 0 0 1 770 272.87z" class="cls-4"/><path d="M449.6 159.2c-148.6 0-269.5 120.89-269.5 269.5S301 698.2 449.6 698.2s269.5-120.89 269.5-269.5-120.91-269.5-269.5-269.5zm0 518.27c-137.17 0-248.77-111.6-248.77-248.77s111.6-248.77 248.77-248.77 248.77 111.6 248.77 248.77S586.76 677.47 449.6 677.47z" class="cls-5"/><path d="M576.59 318.16l-159.3 179.22-96-76.78a10.36 10.36 0 0 0-12.95 16.19L412 519.72a10.37 10.37 0 0 0 14.23-1.21L592.1 331.93a10.37 10.37 0 0 0-15.51-13.77z" class="cls-5"/></svg>